<svg class="model model--01" xmlns="http://www.w3.org/2000/svg" width="485.6" height="370.6" viewBox="0 0 485.6 370.6"><radialGradient id="grad--orange"><stop offset="0%" stop-color="#F48120" stop-opacity="0"/><stop offset="100%" stop-color="#F48120" stop-opacity=".15"/></radialGradient><path fill="none" stroke="#C0C0C0" stroke-width=".5" stroke-miterlimit="10" d="M149.3 38.9h286.1v93.8H149.3zm-.12 95.505h-97.3v-95.4h97.3z"/><path fill="none" stroke="#C0C0C0" stroke-width=".5" stroke-miterlimit="10" d="M82.7 58.6h34.9v49.1H82.7zm81.6 0h20.6v49.1h-20.6zm0 198.9h20.6v49.1h-20.6zm46.3-198.9h84.3v49.1h-84.3zM52.1 0v26.7M435.4.3v26.6M52.1 343.7v26.7M435.4 344v26.6M42.8 27H445v11.9H42.8zm0 305.3H445v11.9H42.8z"/><path fill="#7E7E7E" d="M217.2 200.9v1.5l.4 1.4.4.8-.1.1.1.4.5 1.8.1.6h-.4l-.1.4.1.2h.4l.2 15.3h.5v-8.2l3.3-.4h1.4l.2 6.6h.4l-.1-6.6 4.3.1h.3l.1 8.9h.5v-8.9l.9-.5h.2l1.5-.2 1.1-.4.4-.4.1 8.5h.4l-.1-8.7 2.9.4 1 2 .1.4.1.1-.3.6v.4l.4 1.7.1.8.2.1-.1.2-.3.6-.1.7v.6l.4 1 .7.1h.9l.2-.1v-.3l.7.4.7.5 1.6-.1 1.4-.1.3-.2h-.2v-.2l-.4-.3h-.8l-1-.6s-.3-.2-.4-.4c-.2-.2-.9-1.4-.9-1.4v-.6l.7-.3-.3-.9-.1-1-.1-1-.3-1.6.4.1.8-.5.2.2v.2l.2.3-.1.2.1.6.3.5.3.4.7.3c.4.1.9-.1.9-.1l.8-.5-.3-.5c.1-.1 1.1-.2 1.5-.3.4-.1 1-.5 1.5-1.2s.9-1.6.9-1.6c0-.3-.3-.3-.3-.3-.1-.1-.6 0-.6 0l-.8.4-1 .3h-1.6l-.4-.3-.3-.6.1-.3-.5-.7-.7-.7-1.7-2.3-2.1-2.6-.3-.5-.9-.5h-.9l-1.8.3-1.5.8h.1l-.8.1.3-.1.4-.7.3-.5.1-.4-.2.1 1.7-.7 1.2-3.6-.5.1v-.1l-4 2.1-.6-.2-4.7 2.2 1.2-.6-.3-.2.8-1.2v-.2l-.3-.5-.3-.9-.3-.3v.3-.3l.2-.5-.1-.7-.1-.4h-.4v-.3l-.1-.2h-.3v.3h-.2l-.1-.3h-.3l-.1.2v.1h-.1l-.2-.2-.3.1v.2l-1.7-.3-.1.1.1.1 1.8.2.1.2.1.4-.1.4.1.4.1.4-.2.6v.2l-.1.2-.5-.3-.3-.6-.4-.7h-.2l-.5-1.1-.3-.2v-.3l.3-.1.1-.2.2-.5h.3l.1-.1v-1.1l.2-.1.1-.2.1-.1v-.3l-.2-1.5.2-.1.1-.3-.4-.5-.5-.6-.5-.3-.6-.2-.4-.3h-.7l-.7.1-.8.6-.6.9-.6 1.4v.4l.1.5v.5l.1.4.1.4v.2l-.3.3-.1-.1-.7.2-.3.2-.2 1v.1l-.1.1-.4 1-.8 1zm6.3-2.3c-.1 0-.1 0 0 0-.1 0-.1 0 0 0zm0 0zm-3.3-1l-.7-.3.7.3zm7.6 3.3l-.1-.1.1.1zm-.5 2.6l-1.8.8 1.8-.8zm3.3 1.2l.2.1-.2.1h-.1l.2.8-.2-1-.2-.1.2.1h.1zm-11.4 9.7v-3.8l.8.2 1.2.2 1-.2.5-.3.1.1.9 1.4h-.3l-1.7-.1-.7.1-.2.2-.5.6v.4l.1.3c.3.2 1 .3 1 .3h1.8l-.2.2-3.8.4z"/><path fill="none" stroke="#C0C0C0" stroke-width=".5" stroke-miterlimit="10" d="M314.5 39.1v85.5M149.3 237.7h279v94.6h-279zm-.115 94.47h-91.5v-94.6h91.5z"/><path fill="none" stroke="#C0C0C0" stroke-width=".5" stroke-miterlimit="10" d="M86 257.3h34.9v49.1H86zM356.4 58.6h34.9v49.1h-34.9zm-3.3 198.7H388v49.1h-34.9zm-142.5 0h84.3v49.1h-84.3zm103.9-19.4v94.4"/><path fill="#7E7E7E" d="M435.6 136.9h.7l-85.3-.1H59.4s-2.9 0-2.9.1l-5-.1 5 7.6s0 .1.1.1h1.5V139l369.9.3v5.1c-11 0 0 0 0 0l8.3-7.5-.2.2-.5-.2zm-246.9 84.6H315v2.1H188.7z"/><path fill="#7E7E7E" d="M63.7 223.5h357.7v3.3H63.7z"/><path fill="#F1F1F2" d="M64.1 139.4l16.5 15.7v68.4H64.1m90.8-84.5l1.3.2 10.2 15.9v68.4h-11.9l.2-42.2m40-38.8l8.5 8.6v70.4h-8.5m226.7-82.1l-32.2 19.4v64.7h32.2m-112-81.8l-9.1 10v69.5h9.1"/><path fill="#CCC" d="M194.7 139.4v2.9l9 8.8h96.4l8.7-8.8h.2v-2.9"/><path fill="#D0D2D3" d="M421.4 139.4H311.6v19.4h77.6m-232.8-19.4h36.1v15.7h-26.1M63.7 139.4H149v15.7H80.7"/><path fill="#E6E7E8" d="M314.567 125.404v5.3h-125.4v-5.3zM149 139.4h5.3v84.4H149z"/><path fill="#E6E6E6" d="M421.8 139.4v87.4H63.7v-87.4h-6.2v98.1h370.4v-98.1"/><path fill="#F1F1F2" d="M314.5 128v3.1l-4.1 5.8H436l-.4-4.1-383.7-.3-.3 4.4h142.1l-4.6-5.8v-6.2h125.4v1.6"/><path fill="#7E7E7E" d="M51.6 137.2h-.5l.6-5.1.5.6"/><path fill="#7E7E7E" d="M435.6 132.8H52l-.3-.8h384.1"/><path fill="#7E7E7E" d="M435.9 137.2l-.5-4.5.4-.7.5 5.2"/><path fill="#7E7E7E" d="M436.1 137.3H309.7l4.5-6.4.7.5-3.7 5.1h124.9m-241.5.8H51.3v-.8h141.6l-4.2-5.4.7-.2m239 107H57.1V139h371.3v98.9zm-370.5-.8h369.7v-97.3H57.9v97.3z"/><path fill="#7E7E7E" d="M428.2 144.7l-.4-.7 8.1-7.4.4.6m-373 2.2h.8v98.1h-.8zm357.7 0h.8v98.1h-.8z"/><path fill="#7E7E7E" d="M63.7 223.1h136.6v.8H63.7zm0 3.3h136.6v.8H63.7zm-.233-86.735l.544-.587 16.943 15.704-.544.587z"/><path fill="#7E7E7E" d="M148.7 139.4h.8v84.2h-.8zm5.4 0h.8v83.9h-.8zm34.6 81.7H315v.8H188.7zm110.6 2h122.1v.8H299.3zm-99 3.3h221.1v.8H200.3zm188.695-67.957l32.212-19.394.413.684-32.212 19.395z"/><path fill="#7E7E7E" d="M312.9 158.4h76.3v.8h-76.3zm-232.3-3.7h68.5v.8H80.6z"/><path fill="#7E7E7E" d="M388.8 158.8h.8v64.8h-.8zm-88.56-7.968l8.838-8.84.566.567-8.84 8.838z"/><path fill="#7E7E7E" d="M203.2 150.7h97.7v.8h-97.7z"/><path fill="#7E7E7E" d="M300.1 151.1h.8v70.3h-.8zm-97.2.3l-8.3-8.4v-1l8.9 8.9"/><path fill="#7E7E7E" d="M202.8 151.1h.8v70.3h-.8zm-122.6 4h.8v68.5h-.8zm75.866-15.533l.675-.43 9.987 15.693-.675.43z"/><path fill="#7E7E7E" d="M166.4 154.7h27.4v.8h-27.4z"/><path fill="#7E7E7E" d="M166 155.1h.8v68.5h-.8zm22.7-30.5h.8v6.6h-.8z"/><path fill="#7E7E7E" d="M189.1 124.6h125.4v.8H189.1z"/><path fill="#7E7E7E" d="M314.9 131.4l-.8-.3v-6.5h.8M57.5 144.7H56l-4.9-7.5.5-.6 4.7 7.3h1.2"/><path fill="#7E7E7E" d="M310.1 136.8H193.4l-3.9-5.7h125.3"/><path fill="#E6E7E8" d="M189 131.5h5.3v89.6H189z"/><path fill="#7E7E7E" d="M188.7 131.1h.8v90.1h-.8zm5.4 0h.8v90.1h-.8z"/><path fill="#7E7E7E" d="M188.7 131.1h.8v90.1h-.8zm5.4 0h.8v90.1h-.8z"/><path fill="#E6E7E8" d="M309.1 131.1h5.3v90h-5.3z"/><path fill="#7E7E7E" d="M308.8 131.1h.8v90.1h-.8zm5.4-6.5h.8v96.7h-.8z"/><path fill="#7E7E7E" d="M189.1 130.7h125.4v.8H189.1z"/><circle class="model__coverage" fill="url(#grad--orange)" cx="133.5" cy="189.9" r="90"/><circle fill="#FF8300" cx="133.5" cy="189.9" r="1.7"/><path fill="#FF8300" d="M135.8 186.8c-.1-.3-.5-.5-.8-.5h-3.1c-.3 0-.6.2-.8.5l-1.5 2.7c-.1.3-.1.7 0 .9l1.5 2.7c.1.3.5.5.8.5h3.1c.3 0 .6-.2.8-.5l1.5-2.7c.1-.3.1-.7 0-.9l-1.5-2.7zm-2.3 5.1c-1.1 0-2-.9-2-2s.9-2 2-2 2 .9 2 2-1 2-2 2z"/><g><circle class="model__coverage" fill="url(#grad--orange)" cx="323.3" cy="189.9" r="110"/><circle fill="#FF8300" cx="323.3" cy="189.9" r="1.7"/><path fill="#FF8300" d="M325.7 186.8c-.1-.3-.5-.5-.8-.5h-3.1c-.3 0-.6.2-.8.5l-1.5 2.7c-.1.3-.1.7 0 .9l1.5 2.7c.1.3.5.5.8.5h3.1c.3 0 .6-.2.8-.5l1.5-2.7c.1-.3.1-.7 0-.9l-1.5-2.7zm-2.4 5.1c-1.1 0-2-.9-2-2s.9-2 2-2 2 .9 2 2-.9 2-2 2z"/></g><path fill="none" stroke="#7E7E7E" stroke-width=".75" stroke-miterlimit="10" d="M0 237.5h57.3m370.9 0h57.4"/></svg>