<svg class="model model--02" xmlns="http://www.w3.org/2000/svg" viewBox="0 0 682 390"><radialGradient id="grad--orange"><stop offset="0%" stop-color="#F48120" stop-opacity="0"/><stop offset="100%" stop-color="#F48120" stop-opacity=".15"/></radialGradient><path fill="#D0D2D3" d="M519.9 320.6L474.6 287v-39.1h45.3m-280.7 0h-27.5v72.7l27.5-33.6"/><path fill="#E6E6E6" d="M529.3 247.9h-9.4v72.7H211.7v-72.7h-9.4v81.5h4.7v.6h318.1v-.6h4.2"/><path fill="#F1F1F2" d="M474.6 287H239.2l-27.5 33.6h308.6"/><path fill="#7E7E7E" d="M529.5 329.8H202v-81.9h.6v81.2h326.2v-81.2h.7"/><path fill="#7E7E7E" d="M520.3 320.9H211.4v-73h.7v72.3h307.5v-72.3h.7"/><path fill="#7E7E7E" d="M211.425 320.296l27.494-33.578.54.443-27.493 33.58z"/><path fill="#7E7E7E" d="M238.9 247.9h.7V287h-.7z"/><path fill="#7E7E7E" d="M239.2 286.7h235.4v.7H239.2z"/><path fill="#7E7E7E" d="M474.2 247.9h.7V287h-.7z"/><path fill="#7E7E7E" d="M474.41 287.34l.416-.564 45.34 33.547-.416.563z"/><g fill="#E6E7E8" stroke="#A6A8AB" stroke-width=".5" stroke-miterlimit="10"><path d="M341.8 301.9h60.3v6.8h-60.3zm1.4-6.9h57.4v6.8h-57.4zm1.4-6.8h54.6v6.8h-54.6zm1.5-6.9h51.7v6.8h-51.7zm1.4-6.8h48.8v6.8h-48.8z"/><path d="M348.9 269.4h46v5.2h-46zm1.5-5.2h43.1v5.2h-43.1zm1.4-5.2H392v5.2h-40.2zm1.4-5.2h37.4v5.2h-37.4zm1.5-5.2h34.5v5.2h-34.5zm-17.9 30.5h4.8v29.6h-4.8zm65.3 0h4.8v29.6h-4.8z"/><path d="M341.6 279.1h-4.8l20.7-47h4.8z"/><path stroke-linejoin="bevel" d="M341.6 279.1h-4.8l20.7-47h4.8z"/><path stroke-linejoin="bevel" d="M341.6 279.1v2.8l20.7-47v-2.8zm60.5 0v2.8l-20.7-47v-2.8z"/><path stroke-linejoin="bevel" d="M402.1 279.1h4.8l-20.7-47h-4.8z"/></g><path fill="#7E7E7E" d="M624.325 243.486v4.4h-566.4v-4.4zM541.8 61.3c0-.1 0-.1 0 0l-86.7-.1H188.4s6.6 0 6.6.1l-6.6-.1 6.6 6.6s0 .1.1.1h5.8v-4.7l331.3.3v4.4c-9.6 0 0 0 0 0l9.6-6.6z"/><path fill="#F1F1F2" d="M314.8 63.4h13.7v75.3h-13.7zm99.3 1.9l-6.8 6.8v64.7h6.8M206 223.9l11.1-10.9v-67.7l-11.1-4m320.2.3l-29 4.2v67.8l28.6 9.9m0-160.1l-28.3 17.4v57.9h28.3m-319.4 0h15.1V77.4l-15.1-14"/><path fill="#E6E7E8" d="M194.5 152.1h3.4v59.8h-3.4zm-9.9-2.3h3.7v64.1h-3.7zm-10-2.6h4.4v69.1h-4.4zm-11.4-3.7h4.4v75.3h-4.4zm-13.3-4.3h4.8v82.5h-4.8z"/><path fill="#F1F1F2" d="M200.8 121.7l-56 15.1v2.4l56-14.3"/><path fill="#D0D2D3" d="M150.5 139.2l50.3-14.3v14.3h-50.3"/><path fill="#7E7E7E" d="M200.8 153.5l-46.1-11.9v-2.4h46.1"/><path fill="#D0D2D3" d="M209 141.6h119.5v3.7H217.1m309.1-3.5H417.5v3.8h79.8M206.4 63.4h103.8v25.5h-23V77.4h-65.7"/><path fill="#7E7E7E" d="M425.3 63.4H318.5V56h112.2"/><path fill="#D0D2D3" d="M526.2 63.4H419.1v17.1h73.7l4.7.3m-82.3-17.4h-81.9v10.5H407l8.2-7.3m-46.1-29.7l3.7-13.3L326.6 56h15.3"/><path fill="#D0D2D3" d="M372.4 23.6l-3.3 13.3L399.6 56h22.2"/><path fill="#E6E6E6" d="M525.8 223.5H417.1v-9.9h81.5m-170.1 0H217.2l-10.8 9.9h122.1"/><path fill="#F1F1F2" d="M558 232.4v3.7H120.3v-3.7L58 242.9h563l-31.5-5.2"/><path fill="#E6E7E8" d="M369.1 36.9L341.9 56h57.7m-27.2-32.4v-5.9L318.5 56h8.1m46.2-32.4v-5.9L430.7 56h-8.1m-94.1 80.8h90.4v1.8h-90.4zm88.5 1.9h109.2v3H417zm-210.6 0h122.1v3H206.4z"/><path fill="#F1F1F2" d="M328.5 138.7H417v84.9h-88.5z"/><path fill="#FFF" d="M346.6 147.1h49.9v76.5h-49.9z"/><path fill="#F1F1F2" d="M532.1 223.5l-194.4-.1-136.9-.2v-12.8l-80.5 18.3H558l-12.9-2.6"/><path fill="#E6E7E8" d="M415.2 63.4h3.7v73.4h-3.7zm-86.7 0h4.8v73.4h-4.8z"/><path fill="#E6E6E6" d="M401.5 142h-.1v-.4h-4.8v.4h-50v-.4h-4.8v81.6h4.8v-76.4h50v76.4h4.8v-76.4h.1"/><path fill="#E6E7E8" d="M310 63.4h4.8v75.3H310zm216.2 0h5.9v160.1h-5.9zm-325.4 0h5.5v160.1h-5.5zm357.14 165.26v7.4h-437.6v-7.4z"/><path fill="#F1F1F2" d="M427 61.2h114.8L507.5.3H213.4l-25 60.9h130.1V56l27-19.1 26.9-19.2 29.1 19.2L430.7 56l-1.9 2.6"/><path fill="#7E7E7E" d="M187.925 61.083L213.002.25l.647.268L188.57 61.35z"/><path fill="#7E7E7E" d="M213.4 0h294v.7h-294z"/><path fill="#7E7E7E" d="M507.1.497l.61-.344 34.32 60.897-.61.344z"/><path fill="#7E7E7E" d="M541.7 61.6H426.3l4.1-5.7.6.3-3.3 4.7h114"/><path fill="#7E7E7E" d="M372.225 17.972l.385-.585 58.304 38.376-.385.585z"/><path fill="#7E7E7E" d="M318.31 55.753l53.84-38.345.405.57-53.838 38.345z"/><path fill="#7E7E7E" d="M318.5 55.7h112.2v.7H318.5z"/><path fill="#7E7E7E" d="M318.9 61.6H188.3v-.7h129.9V56h.7"/><path fill="#7E7E7E" d="M200.8 68.2h-6l-6.8-6.7.5-.5 6.6 6.5h5.7m331.137.076l9.625-6.653.398.576-9.625 6.652zM326.488 55.752l45.766-32.448.405.57-45.768 32.45z"/><path fill="#7E7E7E" d="M372.173 23.804l.384-.585 49.402 32.44-.385.584z"/><path fill="#7E7E7E" d="M372 17.7h.7v5.9h-.7z"/><path fill="#7E7E7E" d="M368.744 36.785l3.323-13.29.68.17-3.324 13.29z"/><path fill="#7E7E7E" d="M341.533 55.76l27.34-19.184.403.573-27.34 19.184z"/><path fill="#7E7E7E" d="M368.87 37.2l.37-.593 30.592 19.166-.372.593zM532.5 223.9h-332V63.1h332v160.8zm-331.3-.7h330.6V63.8H201.2v159.4z"/><path fill="#7E7E7E" d="M206 63.4h.7v160.1h-.7zm319.9 0h.7v160.1h-.7z"/><path fill="#7E7E7E" d="M206.4 138.4h122.1v.7H206.4z"/><path fill="#7E7E7E" d="M328.1 138.7h.7v84.9h-.7z"/><path fill="#7E7E7E" d="M206.4 141.3h122.1v.7H206.4zm-.27-77.64l.475-.513 15.108 14.004-.476.514z"/><path fill="#7E7E7E" d="M221.5 77.1h65.7v.7h-65.7z"/><path fill="#7E7E7E" d="M286.8 77.4h.7v61.2h-.7z"/><path fill="#7E7E7E" d="M287.2 88.5h22.9v.7h-22.9z"/><path fill="#7E7E7E" d="M309.7 63.4h.7v75.3h-.7zm4.8 0h.7v75.3h-.7zm13.6 0h.7v78.2h-.7zm4.8 0h.7v73.4h-.7z"/><path fill="#7E7E7E" d="M328.5 136.5H417v.7h-88.5z"/><path fill="#7E7E7E" d="M416.7 136.8h.7v86.7h-.7z"/><path fill="#7E7E7E" d="M328.5 138.4H417v.7h-88.5zm86.3-75h.7v73.4h-.7zm3.7 0h.7v75.3h-.7z"/><path fill="#7E7E7E" d="M417 138.4h109.2v.7H417zm0 2.9h109.2v.7H417zm80.253-60.775l28.785-17.33.36.6-28.784 17.33z"/><path fill="#7E7E7E" d="M418.9 80.4h78.6v.7h-78.6z"/><path fill="#7E7E7E" d="M497.1 80.8h.7v57.9h-.7zm.304 64.484l28.76-3.738.09.694-28.76 3.738zM417.5 145.2h79.9v.7h-79.9z"/><path fill="#7E7E7E" d="M497.1 145.6h.7v68.1h-.7zm-90.123-71.914l7.92-7.92.494.496-7.92 7.92z"/><path fill="#7E7E7E" d="M333.3 73.6h74v.7h-74z"/><path fill="#7E7E7E" d="M406.9 73.9h.7v62.9h-.7zm-200.657 68.028l.228-.66 10.684 3.682-.228.662z"/><path fill="#7E7E7E" d="M217.1 145h111.4v.7H217.1z"/><path fill="#7E7E7E" d="M216.7 145.3h.7v68.3h-.7z"/><path fill="#7E7E7E" d="M217.1 213.2h111.4v.7H217.1z"/><path fill="#7E7E7E" d="M206.11 223.288l10.684-9.95.477.513-10.684 9.95zM417.1 213.2h81.5v.7h-81.5z"/><path fill="#7E7E7E" d="M498.444 213.91l.232-.66 28.402 9.97-.232.66zM341.4 141.6h.7v81.9h-.7zm5.1 5.2h.7v76.8h-.7zm49.7 0h.7v76.8h-.7z"/><path fill="#7E7E7E" d="M341.8 141.3h59.8v.7h-59.8zm4.8 5.4h49.9v.7h-49.9z"/><path fill="#7E7E7E" d="M401.2 141.6h.7v81.9h-.7zm-180-64.2h.7v61.2h-.7zm-20.4 62.2h-56.4v-3l56.8-15.3v4l-50.7 13.6h50.3v.7zm-55.7-.7h2.8l52.6-14.1v-2.6l-55.4 14.9v1.8zm4.8 82.5h4.8v.7h-4.8z"/><path fill="#7E7E7E" d="M155.1 222h-5.5v-83.3h.7v82.7h4.1v-82.2h.7"/><path fill="#7E7E7E" d="M154.615 141.98l.15-.685 8.5 1.847-.148.684z"/><path fill="#7E7E7E" d="M168 219.1h-5.1v-75.6h.3v-.3h4.8v75.9zm-4.5-.7h3.7v-74.6h-3.7v74.6zm15.9-1.8h-5.1v-69.8h5.1v69.8zm-4.4-.7h3.7v-68.4H175v68.4z"/><path fill="#7E7E7E" d="M167.584 145.633l.162-.68 7.782 1.852-.162.68zm11.386 2.887l.19-.675 5.49 1.535-.19.674zm9.208 2.282l.168-.68 6.31 1.558-.167.68z"/><path fill="#7E7E7E" d="M188.6 214.2h-4.4v-64.8h4.4v64.8zm-3.7-.6h3v-63.5h-3v63.5zm13.3-1.4h-4.1v-60.5h4.1v60.5zm-3.4-.7h2.7v-59.1h-2.7v59.1z"/><path fill="#7E7E7E" d="M197.76 153.12l.17-.68 2.912.728-.17.68zm-77.823 75.288l29.886-7.015.16.68-29.886 7.016zm412.165-4.525l.137-.687 25.79 5.158-.138.686zM57.936 243.14l62.325-11.072.124.69-62.325 11.07zm499.996-10.376l.116-.69 66.384 11.064-.115.69z"/><path fill="#7E7E7E" d="M120 228.7h437.9v7.4H120zm504.7 19.5H57.3v-5.1h567.4v5.1zM58 247.6h566v-3.7H58v3.7zm96.613-27.386l8.51-1.81.145.685-8.51 1.81zm12.991-2.774l7.042-1.496.146.685-7.042 1.496zm11.368-2.742l5.575-1.186.145.685-5.575 1.185zm9.618-2.011l5.577-1.18.145.684-5.576 1.182zm9.37-1.985l2.74-.58.145.685-2.74.58z"/><path fill="#E6E7E8" d="M270.4 248.2h4.8v64.1h-4.8z"/><path fill="#7E7E7E" d="M270 248.2h.7v64.1h-.7zm0 64.1h5.4v.7H270z"/><path fill="#D0D2D3" d="M288.2 248.2h-12.8v64.4l12.8-25.6"/><path fill="#7E7E7E" d="M275.4 313l-.2-.6 12.7-25.6.6.4"/><path fill="#7E7E7E" d="M274.8 248.2h.7v64.1h-.7zM287.8 248.2h.7V287h-.7z"/><path fill="none" stroke="#7E7E7E" stroke-width=".75" stroke-miterlimit="10" d="M0 247.8h57.3m567.3.1H682"/><path fill-rule="evenodd" clip-rule="evenodd" fill="#7E7E7E" d="M253.2 120.1s-.4-.3-.7-.7c-.3-.4-.4-.4-.6-.4h-.4s-.2-.3-.4-.5c-.2-.1-.4-.1-.4-.1s.3.1.3.3c0 .1-.1.3-.1.3-.2-.3-.4-.5-.8-.5 0 0 .1 0 .3.1.1 0 .1.1.1.1 0 .1-.4.2-.6.3-.2.2-1.1 0-1.1-.1s0 .2.2.3c.2.1.3.1.3.1s-.4 0-.9.4-.6.9-.6.9 0-.1.1-.1h.1c.1 0-.3.7-.3 1.2 0 .6-.1 1.5-.1 1.7 0 .2.1.5.1.5l.2.2-.4 1.1h-1c-.1 0-.7 1-.8 1.2-.2.2-1.5 2.6-1.7 3-.2.4-.7 2.7-.6 3.3.1.6.2 1.4.1 2-.1.6-.1 1 .1 1.1.1.2 0 .3 0 .5s.4.8.7 1.2c.4.5.3.7.8.8.5.1 2.1.1 2.1.1l.2-.1s1.3.2 1.9 0c.5-.3 2.2-1.8 2.6-2.4.4-.5.3-.6.5-.9.2-.4.6-.4.8-1l.3-.9s1.8 1.7 2.2 2.1c.4.4.2.3.5.8s.9 1 .9 1h.3v.9c0 .3.1.5.4.5.2.1 1.7 0 2.5 0h2.5c.2 0 .1 0 .2-.2 0 0 .2-.2 0-.3-.1-.1.4-.3.4-.6 0-.2-.5-.2-1.1-.3-.6-.1-3.3-1.7-3.3-1.7s.2-.7.3-1.1c.1-.4-.2-.3-.6-.5-.4-.2-1.4-1.3-1.4-1.3l.6-1s.3-.1.4-.4c.1-.3.3-.2.3-.4s.1-.6.1-.6l2-3.8-.8-.8-.4.5-.7-.1-1.7 3.1s-.6-.1-.9.1c-.2.2-.8.5-.8.5s-.7-1-1.3-1.1c-.7-.1-1-.2-1.5.1-.5.3-1.6 1.3-1.6 1.3l-.4-.4c-.1-.1.1-1.1-.2-1.6-.3-.5-.6-1.4-.6-1.4l.1-.5s.6.4.8.6c.2.1.2.3.5.2.1 0 .3-.1.4-.3.1-.2.3-.3.3-.3s.1 0 .1-.1v-.1s.2 0 .2-.1.1-.3.1-.3.5.1.5 0c.1 0 .1 0 0-.4s0-.7 0-.7.7-.7.8-.9c.1-.2.3-.8.3-1v-.3h.2c.1 0 .3-.1.3-.1s-.2 0-.3-.1c0 0 .3-.1.5-.3.1-.1.1-.3 0-.4 0 0 0 .3-.1.3h-.2s.1-.2.1-.5c.1-.3-.1-.2-.1-.4s-.1-.4-.1-.4v.2c-.1.1-.1-.1-.4-.2-.2-.1-.4-.3-.5-.4.1.3-.1.2-.1.2z"/><path fill="#7E7E7E" d="M318.2 275.9l-.2-.3h-2.5l-3.2 2s-.1-.2-.2-.3c-.1-.1-.3-.1-.3-.2s-.3-.4-.5-.6c-.1-.1-.1-.2-.1-.4s-.4-1.2-.5-1.4c-.1-.2 0-.4 0-.7 0-.4-.4-1-.5-1.1 0-.1-.1-.2-.3-.9-.1-.7-.9-1.5-1.1-1.6-.2-.1-.7-.4-1.1-.6-.3-.2-1.6-.7-1.7-.8-.1-.2-.3-.3-.3-.3h.1s.1 0 .1-.1c.2-.1.2-.3.2-.4 0-.2 0-.4.1-.6 0-.1.1-.2.2-.3 0-.1-.1-.2 0-.2h.1s0-.1.1-.3c.1-.2.2-1 .2-1.1-.1-.1 0-.4 0-.4 0-.1.2-.3.3-.5 0-.1-.1-.4-.1-.5 0-.1-.1-.7-.1-.7v-.1c.1-.2-.3-1-.2-.8.1.2.2.2.2.1-.1-.1-.2-.5-.1-.4.1.2.2.3.2.3l-.2-.4c-.1-.1-.7-.8-1.2-1-.5-.3-1.8-.2-2.1-.2-.3 0-1.2.3-1.9.9-.6.6-.9 1.3-.8 2.7.1 1.4.8 2.3.9 2.5v.8s.1-.1 0 0-.7.8-.8 1c-.1.1-2.1.7-2.4.8-.2 0-.9.3-1.5.7-.6.4-.9 2.3-1 4.1-.1 1.8.2 3.7.5 4.6.3.9 2 1.2 2 1.2s.1 2.9-.1 3.9c-.2.9-.4 3.6-.4 3.6l.4 1.1v3c0 1.1.1 1.1.1 2.9 0 1.8.4 10.1.4 10.9.1.8 0 3 0 3s-.6.7-.7.9c-.1.2-.3.6-.2 1.5.1.9 1.4.8 2.1.8.6 0 .9-.7 1-1 .1-.3.2-.8.3-.9.1-.1.3-.2.4-.4.2-.2 0-.3 0-.4v-.5c.4-.2.5-.7.8-1 .2-.3.4-1 .4-1s.2-6.1.4-8.3c.2-2.2.9-6 .9-6s1.3 9.1 1.4 9.9c.1.7 1.2 6.5 1.4 6.6.2.1.5.2.4.3-.1.1 0 .4 0 .8 0 .5.8.6 1.4.7.6.1.8.3 1 .7.2.4.9.8 1.2.8.3 0 2.1.1 2.3-.3.2-.4-.5-1.3-1.1-1.8-.6-.5-1.5-1.5-1.5-1.5s-.7-3.4-.6-4.7c.1-1.3-.4-3.9-.3-6.6.1-2.6-.1-8.9-.1-8.9l.4-.4s-.2-2.5-.2-2.7c0-.2-.4-4.8-.4-4.8.1 0 .2.2.2.3 0 .1.1.2.2.2.2 0 .2 0 .4.1l.4.2c.3 0 .2.2.4.2s.6.4.7.4c.1 0 .5-.1 1.2-.4.7-.3 1-1 1.1-1.2.1-.2.1-.6.2-.8v-.1c0-.1.2-.6.4-.8.2-.2.3-.5.5-.5.1-.1.4-.3.4-.4 0-.1-.2-.2-.2-.2.4-.5 2.7-1.6 2.7-1.7z"/><path fill-rule="evenodd" clip-rule="evenodd" fill="#7E7E7E" d="M475.8 182.9c.2-.5-.3-.9-.4-1.4 0-.6-.1-1-.3-1.5-.2-.5-.1-1.2-.2-1.7s0-1-.1-1.5c-.1-.4-.2-.6-.5-.9-.2-.2-.4-.2-.5-.4-.3-.5-.9-.7-1.2-1.1-.3-.3-.8-.4-1-.8-.1-.2-.2-.7-.4-.9-.5-.4-.5 0-.1-.5s0-.3.1-.7c0-.2.3-1.1.4-1.1.1 0 .3-.6.3-.7 0-.3.2-.5.2-.9-.1-1.3-1.8-4-3.4-3.4-.4.1-.7-.1-1.1-.1-.3 0-.5.4-.7.5-.5.4-1.5 1.2-1.2 2 .3.8.5 1.5.6 2.4.1.9.6 1.6 1.2 2.2.3.3.1.7-.1 1-.1.2-.1.5-.3.6-.2.1-.3.1-.5.2-.4.2-.8.5-1.1.7-.4.2-.7.2-.9.7-.2.5-.2 1.1-.3 1.7-.1.5-.3 1-.2 1.6 0 .4.3 1.2.2 1.6-.1.4-.2.8-.2 1.3-.4 0-.4-.9-.7-1.1-.3-.3-.8-.5-1.2-.7-.3-.1-.5-.4-.7-.6l-.1-.1c-.5-.5-.9-1-1.4-1.6-.2.2-1.2.1-.6.8.4.4.7.9 1.1 1.3.2.2.5.4.6.7 0 .2-.7.2-.3.6.3.2.7.2.6.7-.1.3.1.3.3.4.1.1 0 .3.1.3.2.2.5.5.8.5.5-.1.7-.3.9.3.1.5.3.9.6 1.2.2.2.5.2.3.5-.1.2-.2.4-.2.7 0 .5-.2.9-.3 1.3-.1.5-.3 1.1-.3 1.6 0 .4.2.6.1 1.1-.1.8 0 1.8.2 2.6.5 2.4.2 4.9.4 7.4.1 1.1-.1 2.1 0 3.2 0 .5.3.8.3 1.2.1.6.1 1.2.1 1.7.1 1.2.5 2.3.4 3.5-.1.8.2 1.7.2 2.5 0 .5.1 1.1.1 1.6 0 .3.3.5.1.7-.3.5-.7.9-1 1.4-.2.3-2.2.9-1.3 1.6.5.4 1.5.1 2 0 .9-.2 1.2-.9 1.7-1.5.2-.2.6-.6.5-.1 0 .4.3.4.5.7.6 0 1 0 1-.6 0-.4 0-.8.1-1.2.1-.4-.2-.4-.3-.7-.1-.4.1-.5.1-.8 0-.6-.1-1.2-.1-1.8l-.3-3.9c-.1-1.2-.1-2.4-.3-3.6-.1-.4 0-1 0-1.4 0-.5-.1-.9 0-1.4.1-.5 0-1-.1-1.5s0-.9 0-1.4c0-.4-.2-.9-.1-1.3s.3-.8.4-1.2v-.2c.2.1.3.8.4 1 .2.4.1 1 .2 1.5.1.6.1 1.2.1 1.9 0 .6.2 1.1.3 1.7 0 .5-.1.8-.1 1.3.1.5.1 1 .3 1.4.2.3.2.3.1.8-.1.4-.1.9-.1 1.3-.1 1.1 0 2.2 0 3.3v2.9c0 .7.2 1.1.1 1.8-.1.4 0 1.5-.5 1.6-.3.4-.5 1-.8 1.4-.3.4-1 .8-.8 1.4.1.5.2.4.6.5.4.1 1 0 1.4-.1.5-.1 1-.2 1.3-.6.2-.2.3-1 .6-1s.7.3.8-.1c.1-.3.1-.6.1-.8 0-.3.1-.6.1-.9 0-.3.5-.2.6-.6.1-.4.1-1.2 0-1.6-.1-.5 0-1 0-1.5 0-1.2.3-2.4.2-3.6 0-1.2-.1-2.4-.1-3.6 0-1.1.1-2.2 0-3.2-.1-1.2-.1-2.4-.2-3.7-.1-1 .2-2.1.2-3.2 0-.3.2-.6.2-1 0-.2-.1-.5-.1-.7 0-.2.1-.4 0-.6 0-.2-.2-.3-.1-.6.1-.6-.2-.9-.2-1.4 0-.3-.2-.9-.1-1.2.1-.3-.3-.8-.4-1.2-.1-.5-.3-1-.4-1.5-.2-.8-.7-1.2-.3-2 .1-.1 1 .5 1.1.5.2.1.1.4.2.5.1.2.2.1.4.1.3.1.6.6.9.3.3-.2.7-.3 1.1-.2.2-.6.7-1 .7-1.6.1-.3-.4-.5-.3-1zm-2.3.5c-.3 0-.7-.3-.9-.6-.3-.3 0-.7.2-1 .1-.1.4.8.5.9 0 .1.6.7.2.7z"/><circle class="model__coverage" fill="url(#grad--orange)" cx="258.3" cy="182.6" r="120"/><circle fill="#FF8300" cx="258.3" cy="182.6" r="1.4"/><path fill="#FF8300" d="M260.3 179.9c-.1-.2-.4-.4-.7-.4h-2.7c-.3 0-.6.2-.7.4l-1.3 2.3c-.1.2-.1.6 0 .8l1.3 2.3c.1.2.4.4.7.4h2.7c.3 0 .6-.2.7-.4l1.3-2.3c.1-.2.1-.6 0-.8l-1.3-2.3zm-2 4.4c-.9 0-1.7-.8-1.7-1.7 0-.9.8-1.7 1.7-1.7.9 0 1.7.8 1.7 1.7 0 .9-.8 1.7-1.7 1.7z"/><g><circle class="model__coverage" fill="url(#grad--orange)" cx="414.9" cy="268.3" r="120"/><circle fill="#FF8300" cx="414.9" cy="268.3" r="1.4"/><path fill="#FF8300" d="M416.9 265.6c-.1-.2-.4-.4-.7-.4h-2.7c-.3 0-.6.2-.7.4l-1.3 2.3c-.1.2-.1.6 0 .8l1.3 2.3c.1.2.4.4.7.4h2.7c.3 0 .6-.2.7-.4l1.3-2.3c.1-.2.1-.6 0-.8l-1.3-2.3zm-2 4.4c-.9 0-1.7-.8-1.7-1.7s.8-1.7 1.7-1.7c.9 0 1.7.8 1.7 1.7s-.7 1.7-1.7 1.7z"/></g><g><circle class="model__coverage" fill="url(#grad--orange)" cx="461.6" cy="111.4" r="110"/><circle fill="#FF8300" cx="461.6" cy="111.4" r="1.4"/><path fill="#FF8300" d="M463.6 108.7c-.1-.2-.4-.4-.7-.4h-2.7c-.3 0-.6.2-.7.4l-1.3 2.3c-.1.2-.1.6 0 .8l1.3 2.3c.1.2.4.4.7.4h2.7c.3 0 .6-.2.7-.4l1.3-2.3c.1-.2.1-.6 0-.8l-1.3-2.3zm-2 4.4c-.9 0-1.7-.8-1.7-1.7 0-.9.8-1.7 1.7-1.7.9 0 1.7.8 1.7 1.7 0 .9-.7 1.7-1.7 1.7z"/></g></svg>