<svg class="graphic-clouds" xmlns="http://www.w3.org/2000/svg" viewBox="0 0 1258.7 183.3"><g opacity=".5"><path class="graphic-clouds__cloud" fill="none" stroke="#C0C0C0" stroke-width="1.5" stroke-miterlimit="10" d="M348.8 80.2c0-10.9-9-19.9-20.2-19.5-4.4-9.2-13.8-15.6-24.6-15.6-14.5 0-26.4 11.3-27.2 25.7-9.1-1.9-17.6 5-17.6 14.3 0 14.9 15.6 14.6 15.6 14.6h56.5s17.5-2.2 17.5-19.5zM676.1 153c0-5.6-4.7-10.3-10.4-10.1-2.3-4.8-7.1-8.1-12.7-8.1-7.5 0-13.6 5.9-14.1 13.3-4.7-1-9.1 2.6-9.1 7.4 0 7.7 8.1 7.6 8.1 7.6H667s9.1-1.2 9.1-10.1zM942.5 41.8c0-8.1-6.7-14.7-15-14.4-3.2-6.8-10.2-11.6-18.3-11.6-10.8 0-19.5 8.4-20.2 19-6.7-1.4-13.1 3.7-13.1 10.6 0 11 11.6 10.8 11.6 10.8h41.9c.1 0 13.1-1.7 13.1-14.4z"/></g></svg>