<svg xmlns="http://www.w3.org/2000/svg" width="2016.8" height="147.1" viewBox="0 0 2016.8 147.1">
  <path fill="none" stroke="#7B7B7B" stroke-linecap="round" stroke-linejoin="round" stroke-miterlimit="10" d="M803.7 50.5c-3.2-2.1-7-3.4-11.1-3.4s-7.9 1.2-11.1 3.4M801.1 54.5c-2.4-1.6-5.3-2.6-8.5-2.6-3.1 0-6 .9-8.5 2.6M798.5 58.4c-1.7-1.1-3.7-1.8-5.9-1.8s-4.2.7-5.9 1.8M805.5 89.5c0 6.4-5.4 11.7-11.7 11.7h-2.3c-6.4 0-11.7-5.4-11.7-11.7V75.4c0-6.4 5.4-11.7 11.7-11.7h2.3c6.4 0 11.7 5.4 11.7 11.7v14.1z"/>
  <path fill="none" stroke="#7B7B7B" stroke-linecap="round" stroke-linejoin="round" stroke-miterlimit="10" d="M790.2 77.7c0 1.3 1.1 2.3 2.3 2.3s2.3-1.1 2.3-2.3V73c0-1.3-1.1-2.3-2.3-2.3s-2.3 1.1-2.3 2.3v4.7zM1108.8 96.5c0 2.6-2.1 4.7-4.7 4.7h-30.5c-2.6 0-4.7-2.1-4.7-4.7V51.9c0-2.6 2.1-4.7 4.7-4.7h30.5c2.6 0 4.7 2.1 4.7 4.7v44.6z"/>
  <path fill="none" stroke="#7B7B7B" stroke-linecap="round" stroke-linejoin="round" stroke-miterlimit="10" d="M1073.6 54.2h30.5v37.6h-30.5z"/>
  <path fill="#7B7B7B" d="M1088.8 50.5c.1 0 .2.1.2.2s-.1.2-.2.2-.2-.1-.2-.2.1-.2.2-.2m0-1c-.6 0-1.2.5-1.2 1.2 0 .6.5 1.2 1.2 1.2s1.2-.5 1.2-1.2c0-.6-.5-1.2-1.2-1.2z"/>
  <path fill="none" stroke="#7B7B7B" stroke-linecap="round" stroke-linejoin="round" stroke-miterlimit="10" d="M1080.6 61.3h2.3v2.3h-2.3zM1087.7 61.3h2.3v2.3h-2.3zM1094.7 61.3h2.3v2.3h-2.3zM1080.6 68.3h2.3v2.3h-2.3zM1087.7 68.3h2.3v2.3h-2.3zM1094.7 68.3h2.3v2.3h-2.3zM1080.6 75.4h2.3v2.3h-2.3zM1087.7 75.4h2.3v2.3h-2.3z"/>
  <path fill="none" stroke="#7B7B7B" stroke-linejoin="round" stroke-miterlimit="10" d="M1090 96.5c0 .6-.5 1.2-1.2 1.2-.6 0-1.2-.5-1.2-1.2 0-.6.5-1.2 1.2-1.2s1.2.5 1.2 1.2z"/>
  <g>
    <path fill="none" stroke="#7B7B7B" stroke-linejoin="round" stroke-miterlimit="10" d="M365.2 97.7c0 1.9-1.6 3.5-3.5 3.5h-23.5c-1.9 0-3.5-1.6-3.5-3.5v-47c0-1.9 1.6-3.5 3.5-3.5h23.5c1.9 0 3.5 1.6 3.5 3.5v47zM334.7 80.1h30.5"/>
    <circle fill="none" stroke="#7B7B7B" stroke-linejoin="round" stroke-miterlimit="10" cx="349.9" cy="90.6" r="5.9"/>
    <path fill="#7B7B7B" d="M349.7 90.1l.7.5-.7.5v-1m-1-1.8V93l3.5-2.3-3.5-2.4z"/>
    <path fill="none" stroke="#7B7B7B" stroke-linejoin="round" stroke-miterlimit="10" d="M365.2 54.2h5.9c1.9 0 3.5 1.6 3.5 3.5v32.9c0 3.2 2.6 5.9 5.9 5.9 3.2 0 5.9-2.6 5.9-5.9V73"/>
    <path fill="none" stroke="#7B7B7B" stroke-linejoin="round" stroke-miterlimit="10" d="M388.7 70.7c0 1.3-1.1 2.3-2.3 2.3-1.3 0-2.3-1.1-2.3-2.3v-7c0-1.3 1.1-2.3 2.3-2.3 1.3 0 2.3 1.1 2.3 2.3v7zM384 70.7h-1.2c-1.9 0-3.5-1.6-3.5-3.5s1.6-3.5 3.5-3.5h1.2v7zM340.5 58.9h4.7M340.5 63.6h4.7M340.5 68.3h4.7M340.5 73h4.7M354.6 63.6h4.7M354.6 68.3h4.7M354.6 73h4.7M347.6 68.3h4.7M347.6 73h4.7"/>
  </g>
  <g fill="none" stroke="#7B7B7B" stroke-linejoin="round" stroke-miterlimit="10">
    <path d="M1970.9 84.8c0 2.6-2.1 4.7-4.7 4.7h-25.8c-2.6 0-4.7-2.1-4.7-4.7V63.6c0-2.6 2.1-4.7 4.7-4.7h25.8c2.6 0 4.7 2.1 4.7 4.7v21.2z"/>
    <path d="M1963.9 54.2h-21.1l-2.4 4.7h25.8zM1942.8 47.2h21.1v7h-21.1zM1942.8 94.1h21.1l2.3-4.6h-25.8zM1942.8 94.1h21.1v7h-21.1z"/>
    <path stroke-linecap="round" d="M1960.4 70c-2.1-1.1-4.5-1.7-7.1-1.7-2.5 0-4.9.6-7.1 1.7M1958 74.1c-1.4-.7-3-1.1-4.7-1.1-1.7 0-3.3.4-4.7 1.1"/>
    <circle stroke-linecap="round" cx="1953.3" cy="80.1" r="2.3"/>
  </g>
  <g fill="none" stroke="#7B7B7B" stroke-linecap="round" stroke-linejoin="round" stroke-miterlimit="10">
    <path d="M190.7 74h54v23.5h-54z"/>
    <path d="M200 92.7h35.2v4.7H200zM195.4 78.7H240M195.4 83.4H240M195.4 88.1H240M228.7 53.8c-3.2-2.1-7-3.4-11.1-3.4s-7.9 1.2-11.1 3.4M226.1 57.7c-2.4-1.6-5.3-2.6-8.5-2.6-3.1 0-6 .9-8.5 2.6M223.5 61.7c-1.7-1.1-3.7-1.8-5.9-1.8s-4.2.7-5.9 1.8"/>
  </g>
  <g fill="none" stroke="#7B7B7B" stroke-linecap="round" stroke-linejoin="round" stroke-miterlimit="10">
    <path d="M45.9 101.2l12.2-12.3M99.9 101.2L87.6 88.9"/>
    <circle cx="72.9" cy="70.7" r="23.5"/>
    <circle cx="72.9" cy="70.7" r="9.4"/>
    <path d="M68.2 69.5c0-1.9 1.6-3.5 3.5-3.5"/>
    <circle cx="72.9" cy="55.4" r="1.2"/>
  </g>
  <g fill="none" stroke="#7B7B7B" stroke-linecap="round" stroke-linejoin="round" stroke-miterlimit="10">
    <path d="M1404.6 73c0-5.2-4.2-9.4-9.4-9.4H1360c-5.2 0-9.4 4.2-9.4 9.4v23.5c0 2.6 2.1 4.7 4.7 4.7 3.5 0 2-.2 11.7-16.4h21.1c9.6 16 8.1 16.4 11.7 16.4 2.6 0 4.7-2.1 4.7-4.7V73z"/>
    <ellipse transform="rotate(-45 1392.88 70.686)" cx="1392.9" cy="70.7" rx="1.2" ry="1.2"/>
    <ellipse transform="rotate(-45 1397.575 75.382)" cx="1397.6" cy="75.4" rx="1.2" ry="1.2"/>
    <ellipse transform="rotate(-45 1388.183 75.382)" cx="1388.2" cy="75.4" rx="1.2" ry="1.2"/>
    <ellipse transform="rotate(-45 1392.88 80.078)" cx="1392.9" cy="80.1" rx="1.2" ry="1.2"/>
    <path d="M1362.4 70.7v9.4M1367 75.4h-9.3M1372.9 80.1h2.4M1380 80.1h2.3M1371.7 58.9h9.4v4.7h-9.4zM1376.4 58.9V53c0-3.2-2.6-5.9-5.9-5.9H1360"/>
  </g>
  <g fill="none" stroke="#7B7B7B" stroke-linejoin="round" stroke-miterlimit="10">
    <path d="M675.9 91.8c0 5.2-4.2 9.4-9.4 9.4h-35.2c-5.2 0-9.4-4.2-9.4-9.4V56.6c0-5.2 4.2-9.4 9.4-9.4h35.2c5.2 0 9.4 4.2 9.4 9.4v35.2z"/>
    <circle cx="648.9" cy="74.2" r="4.7"/>
    <circle cx="648.9" cy="74.2" r="15.3"/>
    <circle cx="648.9" cy="74.2" r="21.1"/>
    <path d="M630.1 55.4c0 .6-.5 1.2-1.2 1.2-.6 0-1.2-.5-1.2-1.2 0-.6.5-1.2 1.2-1.2s1.2.6 1.2 1.2zM670 55.4c0 .6-.5 1.2-1.2 1.2-.6 0-1.2-.5-1.2-1.2 0-.6.5-1.2 1.2-1.2s1.2.6 1.2 1.2zM670 94.1c0 .6-.5 1.2-1.2 1.2-.6 0-1.2-.5-1.2-1.2 0-.6.5-1.2 1.2-1.2.7.1 1.2.6 1.2 1.2zM630.1 94.1c0 .6-.5 1.2-1.2 1.2-.6 0-1.2-.5-1.2-1.2 0-.6.5-1.2 1.2-1.2.7.1 1.2.6 1.2 1.2z"/>
  </g>
  <g fill="none" stroke="#7B7B7B" stroke-linejoin="round" stroke-miterlimit="10">
    <path stroke-linecap="round" d="M490.4 84.8h-7c-2.6 0-4.7-2.1-4.7-4.7V66c0-2.6 2.1-4.7 4.7-4.7H528c2.6 0 4.7 2.1 4.7 4.7v14.1c0 2.6-2.1 4.7-4.7 4.7h-7M490.4 56.6v-9.4h23.5l7 7v2.4"/>
    <path stroke-linecap="round" d="M490.4 77.7h30.5v23.5h-30.5z"/>
    <circle stroke-linecap="round" cx="485.7" cy="68.3" r="2.3"/>
    <path stroke-linecap="round" d="M513.9 47.2v7h7"/>
    <path d="M516.1 96.5l-5-12.2-5.4 8.1-5.8-4.7-4.5 8.8z"/>
    <circle cx="497.9" cy="83.1" r="1.2"/>
  </g>
  <g fill="none" stroke="#7B7B7B" stroke-miterlimit="10">
    <path stroke-linecap="round" stroke-linejoin="round" d="M1521.6 56.6v4.2"/>
    <g stroke-linecap="round" stroke-linejoin="round">
      <circle cx="1521.6" cy="74.2" r="27"/>
      <circle cx="1521.6" cy="74.2" r="17.6"/>
    </g>
    <path d="M1530.6 68.5c0 .6-.5 1.2-1.2 1.2-.6 0-1.2-.5-1.2-1.2 0-.6.5-1.2 1.2-1.2.7.1 1.2.6 1.2 1.2z"/>
    <g stroke-linecap="round" stroke-linejoin="round">
      <path d="M1522.1 71.8c0-1.2.6-2.3 2.3-2.3s2.3 1.5 2.3 2.3c0 1.8-4.7 7-4.7 7h5.3M1514.3 69.5h5.6l-3.3 9.4"/>
    </g>
  </g>
  <g>
    <g fill="none" stroke="#7B7B7B" stroke-linecap="round" stroke-linejoin="round" stroke-miterlimit="10">
      <path d="M1781.8 53.9h54v36h-54zM1794.7 89.9l-7.7 7.8M1823 89.9l7.7 7.8"/>
      <path d="M1828.1 83.5s-9 1.3-19.3 1.3-19.3-1.3-19.3-1.3V60.4s9-1.3 19.3-1.3 19.3 1.3 19.3 1.3v23.1z"/>
    </g>
    <path fill="none" stroke="#7B7B7B" stroke-linecap="round" stroke-linejoin="round" stroke-miterlimit="10" d="M1810.6 66.8l2.9 10.3 2.9-10.3"/>
    <g fill="none" stroke="#7B7B7B" stroke-linecap="round" stroke-linejoin="round" stroke-miterlimit="10">
      <path d="M1801.3 66.8h6.4M1804.5 66.8v10.3"/>
    </g>
  </g>
  <g fill="none" stroke="#7B7B7B" stroke-linecap="round" stroke-linejoin="round" stroke-miterlimit="10">
    <path d="M1253.6 82.7h-39.9V59.2h39.9z"/>
    <path d="M1209 87.4V58.1c0-1.9 1.6-3.5 3.5-3.5h42.3c1.9 0 3.5 1.6 3.5 3.5v29.3M1239.5 87.4v2.3h-11.7v-2.3h-21.1v4.7c0 1.3 1.1 2.3 2.3 2.3h49.3c1.3 0 2.3-1.1 2.3-2.3v-4.7h-21.1z"/>
  </g>
  <g fill="none" stroke="#7B7B7B" stroke-linejoin="round" stroke-miterlimit="10">
    <path stroke-linecap="round" d="M963.9 89.2c0 2.1-1.6 3.7-3.5 3.7h-47c-1.9 0-3.5-1.7-3.5-3.7V54.4c0-2.1 1.6-3.7 3.5-3.7h47c1.9 0 3.5 1.7 3.5 3.7v34.8zM920.5 97.7h32.8M936.9 93v4.7"/>
    <circle cx="936.9" cy="88.3" r="1.2"/>
    <path d="M909.9 83.6h54"/>
  </g>
  <g fill="none" stroke="#7B7B7B" stroke-linejoin="round" stroke-miterlimit="10">
    <path stroke-linecap="round" d="M1680.1 96.5c0 2.6-2.1 4.7-4.7 4.7h-21.1c-2.6 0-4.7-2.1-4.7-4.7V51.9c0-2.6 2.1-4.7 4.7-4.7h21.1c2.6 0 4.7 2.1 4.7 4.7v44.6zM1680.1 91.8h-30.5M1680.1 56.6h-30.5M1659 51.9h11.7"/>
    <path d="M1664.8 97.7c-.6 0-1.2-.5-1.2-1.2 0-.6.5-1.2 1.2-1.2.6 0 1.2.5 1.2 1.2 0 .6-.5 1.2-1.2 1.2z"/>
  </g>
</svg>